:SAMPLES-PER-SECOND 30
:FULLY-SPECIFIED
:DEGREES
501
root  -49.7286 39.948 4.17574 175.53 14.9305 173.763
RightUpLeg  12.7525 -3.97586 -3.30995
RightLeg  15.9669 15.7997 3.53911
RightFoot  -18.9905 -1.00971 -13.1165
RightToes  -4.65663e-010 0 -3.6325e-017
Spine  2.48223 1.51308 10.531
Spine1  9.66462 4.86398 -11.505
HEad  -10.1107 -14.7073 4.9629
LeftShoulder1  8.79703 -11.9966 -49.5413
LeftArm  -10.0572 33.2896 -30.9158
LeftForeArm  27.0914 -6.50057 -4.96267
LeftHand  -0.244104 0.0205437 5.32207
RightShoulder  6.66309 10.3794 41.7463
RightArm  15.7019 4.04084 38.0452
RightForeArm  6.78747 35.6337 7.6521
RightHand  -1.14634 2.65426 -16.666
LeftUpLeg  -15.3444 4.24746 5.03257
LeftLeg  0.80626 4.31592 -3.76303
LeftFoot  1.3578 1.18952 -10.7583
LeftToes  -7.27628e-011 -1.6005e-012 -1.37987e-011
502
root  -50.0102 39.7529 2.79172 175.29 17.2259 174.059
RightUpLeg  13.9665 -0.0610505 -3.11735
RightLeg  17.5251 13.8669 3.3765
RightFoot  -19.5331 -0.971418 -11.6854
RightToes  -4.65663e-010 0 -3.6325e-017
Spine  2.10738 1.52861 10.2214
Spine1  9.95877 4.73023 -10.9481
HEad  -10.574 -16.8746 4.58176
LeftShoulder1  8.73397 -11.9115 -49.4567
LeftArm  -9.42291 32.717 -29.3385
LeftForeArm  27.0295 -6.16278 -5.01481
LeftHand  -0.244104 0.0205437 5.32207
RightShoulder  6.55518 10.276 41.3513
RightArm  17.5316 3.29007 37.3001
RightForeArm  5.64094 33.526 7.13935
RightHand  -1.16172 2.83739 -16.5229
LeftUpLeg  -15.3704 4.45839 4.17121
LeftLeg  3.39064 3.91538 -3.21197
LeftFoot  3.93272 1.18467 -9.03018
LeftToes  -7.27628e-011 -1.6005e-012 -1.37987e-011
503
root  -50.1972 39.5721 1.35355 174.547 19.5047 173.872
RightUpLeg  15.3317 5.27282 -2.90729
RightLeg  19.7463 10.5268 3.51358
RightFoot  -19.5941 -0.795153 -9.21519
RightToes  -4.65663e-010 0 -3.6325e-017
Spine  1.89424 1.50936 8.23315
Spine1  10.2446 4.21638 -9.13795
HEad  -10.9488 -18.5563 4.39477
LeftShoulder1  8.60127 -11.6988 -49.3859
LeftArm  -9.06652 32.1377 -27.5818
LeftForeArm  26.6054 -6.2998 -5.01084
LeftHand  -0.244104 0.0205437 5.32207
RightShoulder  6.56035 10.2481 41.4759
RightArm  20.3805 2.7481 36.239
RightForeArm  3.43781 29.4557 6.12713
RightHand  -1.17401 3.09711 -16.2038
LeftUpLeg  -15.2483 6.62834 2.89401
LeftLeg  7.87434 1.9238 -2.45682
LeftFoot  6.98648 1.232 -7.86808
LeftToes  -7.27628e-011 -1.6005e-012 -1.37987e-011
504
root  -50.2884 39.4942 -0.0379428 173.594 21.5001 172.882
RightUpLeg  15.3576 7.8844 -4.39436
RightLeg  23.999 9.38763 4.40045
RightFoot  -18.3258 -0.413118 -4.6409
RightToes  -4.65663e-010 0 -3.6325e-017
Spine  1.74352 1.31945 4.36561
Spine1  10.3827 3.19351 -6.33824
HEad  -11.0114 -19.3489 4.50507
LeftShoulder1  8.56851 -11.5361 -49.7266
LeftArm  -8.82393 31.1945 -25.2334
LeftForeArm  25.5837 -6.47863 -4.94931
LeftHand  -0.244104 0.0205437 5.32207
RightShoulder  6.7081 10.3715 42.0753
RightArm  21.5076 2.37952 35.2013
RightForeArm  2.41304 22.92 5.51041
RightHand  -1.2199 3.49187 -16.0993
LeftUpLeg  -14.8595 10.3552 1.07898
LeftLeg  12.2818 -0.953902 -1.88162
LeftFoot  6.87815 1.28096 -8.2568
LeftToes  -7.27628e-011 -1.6005e-012 -1.37987e-011
505
root  -50.3422 39.5683 -1.3129 172.861 23.4701 171.602
RightUpLeg  12.3783 7.81719 -7.2518
RightLeg  31.5615 9.68346 6.14668
RightFoot  -13.1963 -0.0945354 1.17922
RightToes  -4.65663e-010 0 -3.6325e-017
Spine  1.65669 1.10249 0.376515
Spine1  10.3135 2.13926 -3.73727
HEad  -10.6886 -19.6611 4.3655
LeftShoulder1  8.77424 -11.673 -50.4545
LeftArm  -8.59625 29.3883 -22.2548
LeftForeArm  24.0868 -6.20816 -4.84212
LeftHand  -0.244104 0.0205437 5.32207
RightShoulder  6.75469 10.4663 42.0799
RightArm  12.0516 1.7935 34.8139
RightForeArm  9.47378 13.9008 7.5016
RightHand  -1.29192 3.73135 -16.5958
LeftUpLeg  -13.7804 13.3406 -0.508247
LeftLeg  14.9678 -2.09449 -1.51688
LeftFoot  3.62623 1.13752 -8.80389
LeftToes  -7.27628e-011 -1.6005e-012 -1.37987e-011
506
root  -50.4089 39.7195 -2.46334 172.233 26.0365 170.584
RightUpLeg  6.68802 7.51267 -9.79717
RightLeg  41.4153 8.3012 7.46152
RightFoot  -3.07266 -0.447321 5.89236
RightToes  -4.65663e-010 0 -3.6325e-017
Spine  2.20262 1.07329 -1.8839
Spine1  9.81767 1.65066 -2.72238
HEad  -10.3791 -19.9311 3.50858
LeftShoulder1  9.06542 -12.0636 -50.8236
LeftArm  -8.61745 26.8213 -19.2621
LeftForeArm  22.5474 -5.75326 -4.69308
LeftHand  -0.244104 0.0205437 5.32207
RightShoulder  6.54408 10.3055 41.1772
RightArm  -1.93064 0.485258 35.2253
RightForeArm  16.6214 5.41975 8.0328
RightHand  -1.32672 3.39658 -17.6586
LeftUpLeg  -11.7546 14.5002 -1.17354
LeftLeg  15.7094 -0.593317 -1.41917
LeftFoot  0.374783 0.865148 -8.43313
LeftToes  -7.27628e-011 -1.6005e-012 -1.37987e-011
507
root  -50.4765 39.8508 -3.51326 171.386 29.0394 169.992
RightUpLeg  0.314742 7.26159 -11.287
RightLeg  50.547 4.96438 6.03496
RightFoot  7.37555 -1.27776 8.16169
RightToes  -4.65663e-010 0 -3.6325e-017
Spine  3.84044 1.05518 -2.44916
Spine1  8.71054 1.54473 -3.3327
HEad  -10.5418 -19.9133 2.64509
LeftShoulder1  9.11329 -12.3765 -50.0936
LeftArm  -9.10765 24.0715 -16.826
LeftForeArm  21.1066 -5.82113 -4.52258
LeftHand  -0.244104 0.0205437 5.32207
RightShoulder  6.29459 9.95629 40.5954
RightArm  -6.36141 -1.45586 35.4653
RightForeArm  12.9309 1.38074 6.63169
RightHand  -1.30718 2.74171 -18.7438
LeftUpLeg  -9.23105 14.1019 -0.919825
LeftLeg  15.8271 2.61844 -1.6633
LeftFoot  -1.44196 0.668662 -7.62338
LeftToes  -7.27628e-011 -1.6005e-012 -1.37987e-011
